# Vectary OBJ Export units=mm
mtllib Cylinder.mtl
o 000_Cylinder
g Cylinder
usemtl Abstract Shape 1_31bf57d3-a281-478c-8883-465b42846e91
v 5.000 0.000 0.000
v 4.045 0.000 -3.090
v 4.045 10.000 -3.090
v 5.000 10.000 0.000
v 1.545 0.000 -5.000
v 1.545 10.000 -5.000
v -1.545 0.000 -5.000
v -1.545 10.000 -5.000
v -4.045 0.000 -3.090
v -4.045 10.000 -3.090
v -5.000 0.000 -0.000
v -5.000 10.000 0.000
v -4.045 -0.000 3.090
v -4.045 10.000 3.090
v -1.545 -0.000 5.000
v -1.545 10.000 5.000
v 1.545 -0.000 5.000
v 1.545 10.000 5.000
v 4.045 -0.000 3.090
v 4.045 10.000 3.090
v 0.000 0.000 0.000
v 0.000 10.000 0.000
vt 0.00000 0.00000
vt 0.10000 0.00000
vt 0.10000 1.00000
vt 0.00000 1.00000
vt 0.20000 0.00000
vt 0.20000 1.00000
vt 0.30000 0.00000
vt 0.30000 1.00000
vt 0.40000 0.00000
vt 0.40000 1.00000
vt 0.50000 0.00000
vt 0.50000 1.00000
vt 0.60000 0.00000
vt 0.60000 1.00000
vt 0.70000 0.00000
vt 0.70000 1.00000
vt 0.80000 0.00000
vt 0.80000 1.00000
vt 0.90000 0.00000
vt 0.90000 1.00000
vt 1.00000 0.00000
vt 1.00000 1.00000
vt 0.50000 0.50000
vt 0.90451 0.79389
vt 1.00000 0.50000
vt 0.65451 0.97553
vt 0.34549 0.97553
vt 0.09549 0.79389
vt 0.00000 0.50000
vt 0.09549 0.20611
vt 0.34549 0.02447
vt 0.65451 0.02447
vt 0.90451 0.20611
vt 0.50000 0.50000
vt 1.00000 0.50000
vt 0.90451 0.79389
vt 0.65451 0.97553
vt 0.34549 0.97553
vt 0.09549 0.79389
vt 0.00000 0.50000
vt 0.09549 0.20611
vt 0.34549 0.02447
vt 0.65451 0.02447
vt 0.90451 0.20611
vn 1.00000 0.00000 0.00000
vn 0.82270 0.00000 -0.56847
vn 0.82270 0.00000 -0.56847
vn 1.00000 0.00000 0.00000
vn 0.82270 0.00000 -0.56847
vn 0.32329 0.00000 -0.94630
vn 0.32329 0.00000 -0.94630
vn 0.82270 0.00000 -0.56847
vn 0.32329 0.00000 -0.94630
vn -0.32329 0.00000 -0.94630
vn -0.32329 0.00000 -0.94630
vn 0.32329 0.00000 -0.94630
vn -0.32329 0.00000 -0.94630
vn -0.82270 0.00000 -0.56847
vn -0.82270 0.00000 -0.56847
vn -0.32329 0.00000 -0.94630
vn -0.82270 0.00000 -0.56847
vn -1.00000 0.00000 -0.00000
vn -1.00000 0.00000 -0.00000
vn -0.82270 0.00000 -0.56847
vn -1.00000 0.00000 -0.00000
vn -0.82270 -0.00000 0.56847
vn -0.82270 -0.00000 0.56847
vn -1.00000 0.00000 -0.00000
vn -0.82270 -0.00000 0.56847
vn -0.32329 -0.00000 0.94630
vn -0.32329 -0.00000 0.94630
vn -0.82270 -0.00000 0.56847
vn -0.32329 -0.00000 0.94630
vn 0.32329 -0.00000 0.94630
vn 0.32329 -0.00000 0.94630
vn -0.32329 -0.00000 0.94630
vn 0.32329 -0.00000 0.94630
vn 0.82270 -0.00000 0.56847
vn 0.82270 -0.00000 0.56847
vn 0.32329 -0.00000 0.94630
vn 0.82270 -0.00000 0.56847
vn 1.00000 -0.00000 0.00000
vn 1.00000 -0.00000 0.00000
vn 0.82270 -0.00000 0.56847
vn 0.00000 -1.00000 -0.00000
vn -0.00000 -1.00000 -0.00000
vn -0.00000 -1.00000 -0.00000
vn 0.00000 -1.00000 -0.00000
vn -0.00000 -1.00000 -0.00000
vn -0.00000 -1.00000 -0.00000
vn 0.00000 -1.00000 -0.00000
vn 0.00000 -1.00000 -0.00000
vn -0.00000 -1.00000 -0.00000
vn 0.00000 -1.00000 -0.00000
vn 0.00000 -1.00000 -0.00000
vn 0.00000 -1.00000 -0.00000
vn 0.00000 -1.00000 -0.00000
vn 0.00000 -1.00000 -0.00000
vn 0.00000 -1.00000 -0.00000
vn 0.00000 -1.00000 -0.00000
vn 0.00000 -1.00000 -0.00000
vn 0.00000 -1.00000 -0.00000
vn 0.00000 -1.00000 -0.00000
vn 0.00000 -1.00000 -0.00000
vn 0.00000 -1.00000 -0.00000
vn 0.00000 -1.00000 -0.00000
vn -0.00000 -1.00000 -0.00000
vn 0.00000 -1.00000 -0.00000
vn 0.00000 -1.00000 -0.00000
vn -0.00000 -1.00000 -0.00000
vn -0.00000 -1.00000 -0.00000
vn 0.00000 -1.00000 -0.00000
vn -0.00000 -1.00000 -0.00000
vn -0.00000 -1.00000 -0.00000
vn 0.00000 1.00000 0.00000
vn -0.00000 1.00000 0.00000
vn -0.00000 1.00000 0.00000
vn 0.00000 1.00000 0.00000
vn -0.00000 1.00000 0.00000
vn -0.00000 1.00000 0.00000
vn 0.00000 1.00000 0.00000
vn -0.00000 1.00000 0.00000
vn 0.00000 1.00000 0.00000
vn 0.00000 1.00000 0.00000
vn 0.00000 1.00000 0.00000
vn 0.00000 1.00000 0.00000
vn 0.00000 1.00000 0.00000
vn 0.00000 1.00000 0.00000
vn 0.00000 1.00000 0.00000
vn 0.00000 1.00000 0.00000
vn 0.00000 1.00000 0.00000
vn 0.00000 1.00000 0.00000
vn 0.00000 1.00000 0.00000
vn 0.00000 1.00000 0.00000
vn 0.00000 1.00000 0.00000
vn 0.00000 1.00000 0.00000
vn 0.00000 1.00000 0.00000
vn -0.00000 1.00000 0.00000
vn 0.00000 1.00000 0.00000
vn -0.00000 1.00000 0.00000
vn -0.00000 1.00000 0.00000
vn 0.00000 1.00000 0.00000
vn -0.00000 1.00000 0.00000
vn -0.00000 1.00000 0.00000
f 2/2/2 3/3/3 4/4/4 1/1/1 
f 5/5/6 6/6/7 3/3/8 2/2/5 
f 7/7/10 8/8/11 6/6/12 5/5/9 
f 9/9/14 10/10/15 8/8/16 7/7/13 
f 11/11/18 12/12/19 10/10/20 9/9/17 
f 13/13/22 14/14/23 12/12/24 11/11/21 
f 15/15/26 16/16/27 14/14/28 13/13/25 
f 17/17/30 18/18/31 16/16/32 15/15/29 
f 19/19/34 20/20/35 18/18/36 17/17/33 
f 1/21/38 4/22/39 20/20/40 19/19/37 
f 21/23/41 2/24/42 1/25/43 
f 21/23/44 5/26/45 2/24/46 
f 21/23/47 7/27/48 5/26/49 
f 21/23/50 9/28/51 7/27/52 
f 21/23/53 11/29/54 9/28/55 
f 21/23/56 13/30/57 11/29/58 
f 21/23/59 15/31/60 13/30/61 
f 21/23/62 17/32/63 15/31/64 
f 21/23/65 19/33/66 17/32/67 
f 21/23/68 1/25/69 19/33/70 
f 22/34/71 4/35/72 3/36/73 
f 22/34/74 3/36/75 6/37/76 
f 22/34/77 6/37/78 8/38/79 
f 22/34/80 8/38/81 10/39/82 
f 22/34/83 10/39/84 12/40/85 
f 22/34/86 12/40/87 14/41/88 
f 22/34/89 14/41/90 16/42/91 
f 22/34/92 16/42/93 18/43/94 
f 22/34/95 18/43/96 20/44/97 
f 22/34/98 20/44/99 4/35/100 
